<svg width="120" height="177" viewBox="0 0 120 177" fill="none" xmlns="http://www.w3.org/2000/svg">
<path d="M36.9444 12.134C24.7222 18.7969 14.3889 24.4847 14.0556 24.8639C13.5 25.2972 13.3333 31.1475 13.3333 50.5403V75.675L36.2222 88.0256C48.7778 94.851 59.5 100.485 59.9444 100.539C60.4444 100.647 71.1111 95.1218 83.6111 88.3506L106.389 75.9458V24.7555L83.6111 12.3507C71.1111 5.57947 60.4444 0 60 0C59.5556 0.0541696 49.1667 5.47113 36.9444 12.134ZM81.9445 18.6343C89.6111 22.7512 96.0556 26.2723 96.2778 26.4889C96.7222 26.8681 78.0556 37.3229 77 37.3229C76.7778 37.3229 73.6111 35.6978 69.9445 33.6935L63.3333 30.0641V8.50463L65.7222 9.85887C67 10.5631 74.3333 14.5175 81.9445 18.6343ZM56.5556 19.7719L56.3889 30.3892L49.8889 33.9102L43.3889 37.377L33.6667 32.1226C28.2778 29.1974 24.0556 26.6515 24.2778 26.4348C24.9444 25.8389 55.7778 9.15467 56.2778 9.15467C56.5 9.15467 56.6111 13.9216 56.5556 19.7719ZM32.7778 38.8938L39.7222 42.6315V58.0698L33.6111 61.3742C30.2778 63.216 25.8333 65.6536 23.7778 66.737L20 68.7954V31.9059L22.9444 33.4768C24.5 34.3977 28.9444 36.7812 32.7778 38.8938ZM100.556 50.3236C100.556 60.1283 100.389 68.1995 100.167 68.1995C99.9445 68.1995 95.4445 65.8703 90.1667 62.9993L80.5556 57.8532V42.8482L90.1667 37.6479C95.3889 34.8311 99.8889 32.4476 100.167 32.4476C100.389 32.4476 100.556 40.4647 100.556 50.3236ZM67.3889 39.4897L73.8889 42.9565V57.6906L67.3889 61.1575C63.8333 63.1076 60.6667 64.7327 60.4445 64.841C60.2222 64.9494 57 63.4326 53.3333 61.4284L46.6667 57.799V42.8482L53.2222 39.273C56.7778 37.3229 60 35.8061 60.2778 35.8603C60.6111 35.9145 63.7778 37.5395 67.3889 39.4897ZM50.0556 66.8995L56.6667 70.4747V91.9258L40.7222 83.3129C31.8889 78.5459 24.5556 74.4832 24.3333 74.2665C24 73.9415 42.1111 63.541 43.2778 63.3785C43.3889 63.3243 46.4444 64.9494 50.0556 66.8995ZM87.0556 68.5246C92.3889 71.3956 96.5556 73.9415 96.2778 74.1582C96.0556 74.3749 89.6111 77.8959 81.9445 82.0128C74.3333 86.1297 67 90.0841 65.7222 90.7883L63.3333 92.1425V70.6372L69.8889 67.0078C73.4445 65.0577 76.6111 63.4326 76.8889 63.3785C77.1667 63.3243 81.7222 65.6536 87.0556 68.5246ZM95.5556 111.86C75.9444 113.54 65.5556 124.861 65.5556 144.579C65.5556 155.413 68 162.13 74.1667 168.197C79.8889 173.83 86.8889 176.43 97.7778 176.918C104.556 177.243 111.389 176.593 116.778 175.13L120 174.209V167.222C120 160.721 119.944 160.18 119.056 160.559C114.278 162.509 110.5 163.159 103.056 163.213C94.3889 163.267 91.1111 162.509 87.4444 159.584C80.3333 153.842 80.1111 136.562 87 129.736C91.8889 124.969 104.667 123.994 115.944 127.515L120 128.761V114.84L117.111 114.027C111.111 112.402 101.333 111.373 95.5556 111.86ZM0 144.254V175.997H17.3889C32.8333 175.997 35.3333 175.889 39.0556 174.968C41.3333 174.372 44.2222 173.397 45.3889 172.801C48.8333 171.122 53 167.113 54.8333 163.701C57.9444 158.013 58.6111 154.6 58.5556 144.037C58.5556 135.153 58.4444 134.286 57.0556 130.332C53.8889 121.394 48.9444 116.681 40.0556 114.081C36.8333 113.106 34.2778 112.944 18.2222 112.781L0 112.51V144.254ZM35.5556 126.703C40.3889 129.357 41.7222 132.661 42.0556 143.17C42.3889 152.271 41.5556 156.279 38.5556 159.638C35.6667 162.942 33.2222 163.701 24.3333 163.971L16.6667 164.188V124.969L24.8889 125.186C32.3889 125.348 33.2778 125.457 35.5556 126.703Z" fill="black"/>
</svg>
