<svg width="94" height="101" viewBox="0 0 94 101" fill="none" xmlns="http://www.w3.org/2000/svg">
<path d="M23.9444 12.134C11.7222 18.7969 1.38887 24.4847 1.05554 24.8639C0.499982 25.2972 0.333313 31.1475 0.333313 50.5403V75.675L23.2222 88.0256C35.7777 94.851 46.5 100.485 46.9444 100.539C47.4444 100.647 58.1111 95.1219 70.6111 88.3506L93.3889 75.9458V24.7555L70.6111 12.3507C58.1111 5.57946 47.4444 0 47 0C46.5555 0.0541697 36.1666 5.47112 23.9444 12.134ZM68.9444 18.6344C76.6111 22.7512 83.0555 26.2723 83.2778 26.4889C83.7222 26.8681 65.0555 37.3229 64 37.3229C63.7778 37.3229 60.6111 35.6978 56.9444 33.6935L50.3333 30.0641V8.50463L52.7222 9.85887C54 10.5631 61.3333 14.5175 68.9444 18.6344ZM43.5555 19.7719L43.3889 30.3892L36.8889 33.9102L30.3889 37.377L20.6667 32.1226C15.2778 29.1974 11.0555 26.6515 11.2778 26.4348C11.9444 25.8389 42.7778 9.15467 43.2778 9.15467C43.5 9.15467 43.6111 13.9216 43.5555 19.7719ZM19.7778 38.8938L26.7222 42.6315V58.0698L20.6111 61.3742C17.2778 63.216 12.8333 65.6536 10.7778 66.737L6.99998 68.7954V31.9059L9.94443 33.4768C11.5 34.3977 15.9444 36.7812 19.7778 38.8938ZM87.5555 50.3236C87.5555 60.1283 87.3889 68.1996 87.1667 68.1996C86.9444 68.1996 82.4444 65.8703 77.1666 62.9993L67.5555 57.8532V42.8482L77.1666 37.6479C82.3889 34.8311 86.8889 32.4476 87.1667 32.4476C87.3889 32.4476 87.5555 40.4647 87.5555 50.3236ZM54.3889 39.4897L60.8889 42.9565V57.6907L54.3889 61.1575C50.8333 63.1076 47.6667 64.7327 47.4444 64.841C47.2222 64.9494 44 63.4326 40.3333 61.4284L33.6666 57.799V42.8482L40.2222 39.273C43.7777 37.3229 47 35.8061 47.2778 35.8603C47.6111 35.9145 50.7778 37.5395 54.3889 39.4897ZM37.0555 66.8995L43.6667 70.4747V91.9258L27.7222 83.3129C18.8889 78.5459 11.5555 74.4832 11.3333 74.2665C11 73.9415 29.1111 63.541 30.2778 63.3785C30.3889 63.3243 33.4444 64.9494 37.0555 66.8995ZM74.0555 68.5246C79.3889 71.3956 83.5555 73.9415 83.2778 74.1582C83.0555 74.3749 76.6111 77.8959 68.9444 82.0128C61.3333 86.1297 54 90.0841 52.7222 90.7883L50.3333 92.1425V70.6372L56.8889 67.0078C60.4444 65.0577 63.6111 63.4326 63.8889 63.3785C64.1666 63.3243 68.7222 65.6536 74.0555 68.5246Z" fill="#000"/>
      <style>
          path { fill: #000; }
          @media (prefers-color-scheme: dark) {
              path { fill: #FFF; }
          }
      </style>
</svg>
